<?xml version="1.0" standalone="no"?><!DOCTYPE svg PUBLIC "-//W3C//DTD SVG 1.1//EN" "http://www.w3.org/Graphics/SVG/1.1/DTD/svg11.dtd"><svg t="1628658180048" class="icon" viewBox="0 0 1024 1024" version="1.1" xmlns="http://www.w3.org/2000/svg" p-id="2878" xmlns:xlink="http://www.w3.org/1999/xlink" width="200" height="200"><defs><style type="text/css"></style></defs><path d="M928 288.64V608c0 53.12-42.88 96-96 96h-146.56L512 884.48l-151.04-158.72 46.08-44.16L512 791.68 658.56 640H832c17.92 0 32-14.08 32-32V288.64h64zM735.36 96v64H192c-17.28 0-32 14.08-32 32v416c0 17.92 14.72 32 32 32h64v64H192c-53.12 0-96-42.88-96-96V192c0-53.12 42.88-96 96-96h543.36zM704 448v64H320v-64h384z m0-160v64H320V288h384z m192-224a64 64 0 1 1 0 128 64 64 0 0 1 0-128z" p-id="2879"></path></svg>